<?xml version="1.0" encoding="UTF-8"?>
<svg width="148px" height="37px" viewBox="0 0 148 37" version="1.1" xmlns="http://www.w3.org/2000/svg" xmlns:xlink="http://www.w3.org/1999/xlink">
    <!-- Generator: Sketch 54.1 (76490) - https://sketchapp.com -->
    <title>logo</title>
    <desc>Created with Sketch.</desc>
    <g id="Page-1" stroke="none" stroke-width="1" fill="none" fill-rule="evenodd">
        <g id="bosfor_business_cart" transform="translate(-354.000000, -90.000000)" fill="#24AC6E" fill-rule="nonzero">
            <g id="logo" transform="translate(354.000000, 90.000000)">
                <path d="M11.5052296,6.66312997 C10.3599363,6.66312997 9.27216917,6.81167109 8.2471578,7.10344828 L8.2471578,12.5198939 C9.22510232,11.9469496 10.3076398,11.6604775 11.5052296,11.6604775 C13.3199181,11.6604775 14.8678945,12.3129973 16.1543884,13.6127321 C17.4356526,14.9124668 18.0788995,16.4880637 18.0788995,18.3289125 C18.0788995,20.1697613 17.4356526,21.7400531 16.1543884,23.0450928 C14.8731241,24.3501326 13.3199181,24.9973475 11.5052296,24.9973475 C9.69054116,24.9973475 8.1425648,24.3448276 6.85607094,23.0450928 C5.60618463,21.7771883 4.9629377,20.265252 4.9315598,18.5145889 L4.9315598,0 L0,0 L0,18.3342175 C0,21.5649867 1.11914507,24.3129973 3.36266485,26.5888594 C5.60618463,28.8647215 8.31514325,30 11.5,30 C14.6848568,30 17.3938154,28.8647215 19.6373352,26.5888594 C21.8808549,24.3129973 23,21.5649867 23,18.3342175 C23,15.1034483 21.8808549,12.3554377 19.6373352,10.0795756 C17.399045,7.80371353 14.6900864,6.66312997 11.5052296,6.66312997 Z" id="Path"></path>
                <path d="M59.0123012,15.8049291 C55.4572457,14.9004181 53.6771677,13.9488517 53.6771677,12.9554581 C53.6261626,12.2862246 54.4524452,11.9463794 56.1560156,11.9306943 L64.0669067,11.9306943 L64.0669067,7.00032526 L55.4317432,7.00032526 C51.1575158,6.96895494 49.020402,9.20670461 49.020402,13.724031 C49.020402,15.3866581 49.5151515,16.7983226 50.509751,17.9747097 C51.5043504,19.1458684 54.309631,20.3222555 58.9357936,21.503871 C60.3027303,21.8646297 60.9912991,22.4868078 60.9912991,23.3756336 C60.909691,24.421311 59.8130813,24.9859768 57.7116712,25.069631 L49,25.069631 L49.0255026,30 L57.8391839,30 C60.5118512,30 62.5367537,29.3778219 63.9240924,28.1282374 C65.3114311,26.8786529 66,25.0330323 66,22.5861471 C66,20.7196129 65.4848485,19.2922633 64.459646,18.2988697 C63.4344434,17.3054762 61.6186619,16.4741626 59.0123012,15.8049291 Z" id="Path"></path>
                <path d="M79.4973858,7 C76.313253,7 73.6049102,8.13527851 71.3619004,10.4111406 C69.1188907,12.6870027 68,15.4403183 68,18.6657825 L68,37 L72.9304387,37 L72.9304387,18.4854111 C72.9618095,16.729443 73.6049102,15.2228117 74.8545124,13.9549072 C76.1354853,12.6551724 77.6883383,12.0026525 79.5026142,12.0026525 C81.3168902,12.0026525 82.8645147,12.6551724 84.1507161,13.9549072 C85.431689,15.2546419 86.0747897,16.8302387 86.0747897,18.6710875 C86.0747897,20.5119363 85.431689,22.0822281 84.1507161,23.3872679 C82.8697431,24.6923077 81.3168902,25.3395225 79.5026142,25.3395225 C78.3052967,25.3395225 77.2177768,25.0530504 76.245283,24.4801061 L76.245283,29.8965517 C77.2700614,30.193634 78.3575813,30.3421751 79.5026142,30.3421751 C82.686747,30.3421751 85.3950898,29.2068966 87.6380996,26.9310345 C89.8811093,24.6551724 91,21.9071618 91,18.6763926 C91,15.4456233 89.8811093,12.6976127 87.6380996,10.4217507 C85.3950898,8.14058355 82.6815185,7 79.4973858,7 Z" id="Path"></path>
                <rect id="Rectangle" x="92" y="0" width="5" height="30"></rect>
                <path d="M100,7 L100,11.9304387 C101.735,11.9304387 103.215,12.5735394 104.445,13.8545124 C105.67,15.1354853 106.285,16.6883383 106.285,18.5026142 L106.285,30 L111,30 L111,18.5026142 C111,15.3184815 109.93,12.6101387 107.785,10.3671289 C105.64,8.12411912 103.045,7 100,7 Z" id="Path"></path>
                <path d="M140.215,10.3626648 C138.07,12.6061846 137,15.3203729 137,18.5 L137,30 L141.715,30 L141.715,18.5052296 C141.715,16.6905412 142.33,15.1425648 143.555,13.8560709 C144.78,12.5748067 146.265,11.9315598 148,11.9315598 L148,7 C144.95,7 142.355,8.12437472 140.215,10.3626648 Z" id="Path"></path>
                <path d="M36.5,7 C33.3151432,7 30.6061846,8.11914507 28.3626648,10.3626648 C26.1191451,12.6061846 25,15.3203729 25,18.5 C25,21.6848568 26.1191451,24.3938154 28.3626648,26.6373352 C30.6061846,28.8808549 33.3151432,30 36.5,30 C39.6848568,30 42.3938154,28.8808549 44.6373352,26.6373352 C46.8808549,24.3938154 48,21.6848568 48,18.5 C48,15.3151432 46.8808549,12.6061846 44.6373352,10.3626648 C42.3938154,8.12437472 39.6848568,7 36.5,7 Z M41.2537517,23.2589814 C39.9411096,24.5716235 38.3565257,25.2305593 36.5,25.2305593 C34.6434743,25.2305593 33.0588904,24.5716235 31.7462483,23.2589814 C30.4336062,21.9463392 29.7746703,20.3617553 29.7746703,18.5052296 C29.7746703,16.648704 30.4336062,15.0641201 31.7462483,13.7514779 C33.0588904,12.4388358 34.6434743,11.7799 36.5,11.7799 C38.3565257,11.7799 39.9411096,12.4388358 41.2537517,13.7514779 C42.5663938,15.0641201 43.2253297,16.648704 43.2253297,18.5052296 C43.2253297,20.3617553 42.5663938,21.9463392 41.2537517,23.2589814 Z" id="Shape"></path>
                <path d="M124.5,7 C121.315143,7 118.606185,8.11914507 116.362665,10.3626648 C114.119145,12.6061846 113,15.3203729 113,18.5 C113,21.6848568 114.119145,24.3938154 116.362665,26.6373352 C118.606185,28.8808549 121.315143,30 124.5,30 C127.684857,30 130.393815,28.8808549 132.637335,26.6373352 C134.880855,24.3938154 136,21.6848568 136,18.5 C136,15.3151432 134.880855,12.6061846 132.637335,10.3626648 C130.393815,8.12437472 127.684857,7 124.5,7 Z M129.253752,23.2589814 C127.94111,24.5716235 126.356526,25.2305593 124.5,25.2305593 C122.643474,25.2305593 121.05889,24.5716235 119.746248,23.2589814 C118.433606,21.9463392 117.77467,20.3617553 117.77467,18.5052296 C117.77467,16.648704 118.433606,15.0641201 119.746248,13.7514779 C121.05889,12.4388358 122.643474,11.7799 124.5,11.7799 C126.356526,11.7799 127.94111,12.4388358 129.253752,13.7514779 C130.566394,15.0641201 131.22533,16.648704 131.22533,18.5052296 C131.22533,20.3617553 130.566394,21.9463392 129.253752,23.2589814 Z" id="Shape"></path>
            </g>
        </g>
    </g>
</svg>